<?xml version="1.0" encoding="UTF-8"?>
<svg xmlns="http://www.w3.org/2000/svg" id="Ebene_1" data-name="Ebene 1" viewBox="0 0 621.22 548.49">
  <defs>
    <style>.cls-1{fill:#fff;}.cls-2{fill:#92a1a1;}.cls-3{fill:#1d1d1b;}.cls-4{fill:#ced7d7;}</style>
  </defs>
  <polygon class="cls-1" points="0 0 0 548.49 310.8 548.49 310.8 0 0 0 0 0"></polygon>
  <polygon class="cls-2" points="310.43 0 310.43 548.49 621.22 548.49 621.22 0 310.43 0 310.43 0"></polygon>
  <path class="cls-1" d="M450.21,616.09v41.29h18.44v-5.94H456.52V616.09Zm76.84,0H504.27v41.29h22.78v-5.94H510.58v-13h16v-6h-16V622h16.47v-5.94Zm32.27,0v41.29h8.54c5.76,0,10.28-.56,15.1-4a19.69,19.69,0,0,0,8.3-16.65,20.46,20.46,0,0,0-7.92-16.66c-4.59-3.4-9.6-4-15.36-4Zm6.31,5.94h2.72c3,0,7.43.25,11,2.85a14.73,14.73,0,0,1,5.57,11.89,14.56,14.56,0,0,1-5.63,11.76c-3.59,2.66-7.86,2.91-11,2.91h-2.72V622Zm82.91-5.94H625.76v41.29h22.78v-5.94H632.07v-13h16v-6h-16V622h16.47v-5.94Zm34.74,0v41.29h6.32v-16.9h1.11l11.82,16.9h7.62l-12.88-17.64a11.32,11.32,0,0,0,9.16-11.52,11.53,11.53,0,0,0-4.89-9.72c-2.66-1.79-5.88-2.41-10.89-2.41Zm6.32,5.82h2.16c3.1,0,8.61.56,8.61,6.37,0,6.57-7.06,6.75-8.79,6.75h-2V621.91Z" transform="translate(-110.94 -146.7)"></path>
  <path d="M265.62,622.28a14.08,14.08,0,0,0-3.16-4.15,12.18,12.18,0,0,0-8.29-2.78c-7.74,0-12.07,5.32-12.07,10.89,0,6.19,5,9,8.42,10.46l4,1.67c2.72,1.12,5.94,2.85,5.94,7.06a6.63,6.63,0,0,1-6.81,6.93,6.51,6.51,0,0,1-5.38-2.47,8.92,8.92,0,0,1-1.74-5.26L240.24,646a13.39,13.39,0,0,0,3.47,8,12.07,12.07,0,0,0,9.72,4.14c7.73,0,13.31-5.38,13.31-13.24,0-4.71-2.11-9-9.72-12.14l-4.15-1.67c-4-1.61-4.46-3.77-4.46-5,0-2.66,2-5,5.82-5a6.59,6.59,0,0,1,4.46,1.48,6.67,6.67,0,0,1,1.86,2.6l5.07-3Zm36.23-6.19v26.56a15.28,15.28,0,0,0,3.84,10.71,16,16,0,0,0,22.9,0,15.28,15.28,0,0,0,3.84-10.71V616.09h-6.31V641c0,2.23-.06,5-1.3,7.12a9,9,0,0,1-15.35,0c-1.24-2.16-1.3-4.89-1.3-7.12V616.09Zm67.68,0v41.29h8.54c5.76,0,10.28-.56,15.11-4a19.7,19.7,0,0,0,8.29-16.65,20.46,20.46,0,0,0-7.92-16.66c-4.58-3.4-9.6-4-15.35-4Zm6.31,5.94h2.73c3,0,7.43.25,11,2.85a14.73,14.73,0,0,1,5.57,11.89,14.56,14.56,0,0,1-5.64,11.76c-3.59,2.66-7.86,2.91-10.95,2.91h-2.73V622Z" transform="translate(-110.94 -146.7)"></path>
  <path class="cls-3" d="M309.67,615.61a3.35,3.35,0,1,0,3.35-3.35,3.35,3.35,0,0,0-3.35,3.35Zm8.36,0a3.35,3.35,0,1,0,3.34-3.35,3.35,3.35,0,0,0-3.34,3.35Z" transform="translate(-110.94 -146.7)"></path>
  <path class="cls-4" d="M230.8,385.58c-.18.38-.42.84-.62,1.32-.32.75.07,1.31.86,1.15a6.16,6.16,0,0,0,2.25-.68,1.75,1.75,0,0,1,2.51.36,1.49,1.49,0,0,0,1.61.34,1.93,1.93,0,0,0,1-2.21c-.3-1.44-.44-1.58-1.69-1.54a5,5,0,0,0-.94.11l-5,1.15Zm378.74-38.84a17,17,0,0,1-2.4-4.05c-.75-2.39-3-3.91-3.37-6.46,0-.13-.22-.23-.31-.36-.78-1.16-.78-2.71-1.91-3.73-.26-.24,0-1.1-.24-1.34a5.58,5.58,0,0,1-1.65-3.77,16.34,16.34,0,0,0-.43-1.63c-.14-.55-.22-1.13-.4-1.67-.59-1.81-1.4-3.55-1.2-5.54,0-.42-.29-.87-.41-1.31a7.25,7.25,0,0,1-.46-2c0-1.84.2-3.69.19-5.53a15.14,15.14,0,0,0-.38-3.14c-.34-1.53-1-2.14-2.56-2-4,.27-7.68-1.31-11.59-1.38a2.61,2.61,0,0,1-.88-.35l-2.88-1.3c-.95-.43-1.95-.78-2.85-1.3-1.39-.81-2.49-2.09-4.11-2.55-.17,0-.28-.3-.42-.45l-1.13-1.07c-.94-.92-1.93-1.79-2.79-2.78a15.47,15.47,0,0,1-1.18-2c-1.37-2.18-2.84-4.3-4.12-6.53-.93-1.64-1.57-3.46-2.45-5.13a14.29,14.29,0,0,1-1.3-8.33c.15-1.43-.16-2-1.53-1.79s-2.73,0-4,.84a2.65,2.65,0,0,1-1.83.28,4.55,4.55,0,0,0-3.46.74,4.43,4.43,0,0,1-2.06.61,13.67,13.67,0,0,0-5.14.79c-1.6.58-3.05,1.56-4.79,1.84a8.91,8.91,0,0,0-1.74.64c-.38.16-.75.37-1.13.56a11.26,11.26,0,0,1-1.8.91c-1.86.57-3.73,1.11-5.63,1.52a4.6,4.6,0,0,1-2.5-.06,7.93,7.93,0,0,0-3.42-.47c-1.29.06-2.3-.26-2.77-1.61-1.13,0-2.19.07-3.24,0-.59-.05-1.6-.27-1.67-.58-.25-1.12-1-1.16-1.84-1.32-.48-.09-.92-.63-1.26-1.07a2.23,2.23,0,0,0-2.12-1.11,2.65,2.65,0,0,1-2.5-1.07c-.57-.7-.94-.69-1.57-.11a3.07,3.07,0,0,0-1,2.88c.13,1-.06,1.23-.92,1.46-.56.15-1.1.38-1.66.48a3.08,3.08,0,0,1-1.69.07,8.4,8.4,0,0,0-3.57-.51,13.39,13.39,0,0,1-1.6-.23v-2a23.15,23.15,0,0,1-2.78,0c-.87-.1-1.72-.43-2.59-.61a2.34,2.34,0,0,1-1.7-1.29c-.18-.37-.41-.89-.73-1-1.47-.48-2.45-1.63-3.67-2.44a1.24,1.24,0,0,0-.85-.25c-.94.31-1.84.71-2.75,1.07,0,.29-.06.5-.06.71,0,.55,0,1.09-.7,1.25s-1.09-.25-1.32-.85a3.89,3.89,0,0,0-.22-.6c-.58-1-.78-2.2-2.15-2.55a1.38,1.38,0,0,1-.68-1.12c.08-1.27-.44-2.65.69-3.77.42-.4.27-1-.13-1.44a1,1,0,0,0-1.27-.26c-.47.19-1.12.45-1.48.27-1.62-.82-3.24,0-4.85-.13-.7,0-1.07.51-1.23,1.22a10.52,10.52,0,0,1-.77,2.36,1.69,1.69,0,0,1-1.06.81,11.13,11.13,0,0,1-2.38,0c-.66,0-.92-.47-.85-1.09,0-.37.21-.72.22-1.09,0-.8,0-1.77-.79-2.11-2-.85-2.18-2.51-2.36-4.28a2.48,2.48,0,0,1,1.37-2.62,10.15,10.15,0,0,0,1.48-1.39c-.75-.22-1.16-.37-1.58-.45a14.3,14.3,0,0,1-1.87-.31,1.66,1.66,0,0,1-1-.84,3.38,3.38,0,0,0-2.14-2.17,2.76,2.76,0,0,1-1.73-2.09,31.81,31.81,0,0,0-1.19-3.7,12.26,12.26,0,0,0-4.7,1.35,1.7,1.7,0,0,0-.63.86c-.56,1.85-.84,2.12-2.7,2.15a3.52,3.52,0,0,0-2.29.89c-1.12.91-2.6,1.36-3.37,2.72-.05.07-.19.08-.28.14-.71.44-1.4.91-2.12,1.33a13.78,13.78,0,0,1-3.44,1.83,10.38,10.38,0,0,1-3.42-.31c-.57-.07-1.14-.22-1.71-.26-.95-.05-1.91-.05-2.86-.07-1.23.87-2.57.26-3.64-.09a10.44,10.44,0,0,0-5.71-.54,4.81,4.81,0,0,1-1.42,0c-.91-.06-1.39-.48-1.41-1.37a12.54,12.54,0,0,1,.2-2.52c.19-1.13.19-1.36-.8-1.73a1.29,1.29,0,0,1-1-1.38,3.42,3.42,0,0,0-.2-.87,23.52,23.52,0,0,1-4.28,0,16.34,16.34,0,0,1-1.76,2.73,17.36,17.36,0,0,1-2.62,2L397,247.75a10.48,10.48,0,0,0-.71,1.59,1.91,1.91,0,0,1-2.24,1.71,2.83,2.83,0,0,1-.78-.13c-.85-.35-1.29,0-1.51.81a1.62,1.62,0,0,1-1.24,1.3c-1.06.27-2.09.66-3.15.92-1.55.37-1.76.35-2.33-1a2.28,2.28,0,0,0-2.72-1.54c-.58.06-1.23-.1-1.54.55a1.42,1.42,0,0,1-2,.78c-.37-.11-.83.09-1.25.09a17.49,17.49,0,0,1-2.17-.08c-1.66-.22-3.15-1.6-5-.75-.18.08-.49-.15-.75-.2a11,11,0,0,0-6.53.26,9.27,9.27,0,0,1-5.6.41c-1.07-.24-2.25-.68-3.32.18-.13.11-.41,0-.62.05-.84.08-1.68.15-2.51.26s-1.36,0-1.58-.89c-.05-.23-.37-.4-.61-.62-.61,1.3-.61,1.3-2.43,1.11v1.43a1.9,1.9,0,0,1-2-.06,6.92,6.92,0,0,0-3.77-1,2.79,2.79,0,0,1-.62-.11c-1.78-.17-3.56-.35-5.35-.48a3.62,3.62,0,0,0-3.62,1.85,6.69,6.69,0,0,1-3.23,3.24c-1.62.71-3.05,1.86-4.66,2.63a11.34,11.34,0,0,0-3,2,8.49,8.49,0,0,1-2.14,1.6,1.45,1.45,0,0,0-1,1.42c-.08,1.23-.53,1.45-1.63.94a1.59,1.59,0,0,0-2.47,1.49c0,.74.05,1.49,0,2.22-.05.45-.18,1.11-.47,1.26-1.25.6-1.13,1.64-1.11,2.71,0,.79,0,1.59,0,2.38a1.63,1.63,0,0,0,.24,1c1,1,.73,2.09.55,3.26-.31,2-.46,3.92,1.28,5.42a11.42,11.42,0,0,1,1.11,1.09c.34.39.83.8.88,1.25a6.77,6.77,0,0,1,0,3.14,3.81,3.81,0,0,0,0,3c.68,2-.12,3-2.19,3.17a1.92,1.92,0,0,0-1.28.79c-1.12,1.19-2.34,2.28-3.5,3.44a3.85,3.85,0,0,0-.88,1.24,2.84,2.84,0,0,1-2.16,1.88c-1.16.26-1.43.66-1.18,1.8a3.11,3.11,0,0,1-.78,2.78c-.7.85-1.59,1.54-2.37,2.33a13.57,13.57,0,0,0-1.57,1.75.92.92,0,0,0,.41,1.46l1.78-.86c.78.85.48,1.74.48,2.55,0,1.06-.37,1.29-1.41,1.11-1.42-.24-1.42-.24-1.79,1.28-.58,2.38-2.18,3.16-4.42,2.14-.33-.16-.62-.41-.95-.57s-.79-.5-1.16-.46a24.1,24.1,0,0,0-4.34.7,1.9,1.9,0,0,0-.89,2.9c.14.23.3.44.44.66.76,1.19.79,1.32-.2,2.3s-1.11,2.55-1.16,4a1.26,1.26,0,0,0,.31.7,2,2,0,0,0,3.2.37,1.44,1.44,0,0,1,1.73-.32c.65.34.49,1,.42,1.57a1.65,1.65,0,0,1-1.36,1.54c-.53.12-1.25.13-1.39.86-.31,1.61-1.5,2.15-2.87,2.53a2,2,0,0,0-1,.67c-.67.88-1.27,1.81-1.87,2.74-.74,1.14-1.54,2.06-3.09,1.39-.28-.12-.64,0-.95-.06a2.18,2.18,0,0,0-2.64,1.47,2.54,2.54,0,0,1-2.38,1.48,11.07,11.07,0,0,0-5.88,2c-.41.34-.77.73-1.15,1.09A4.12,4.12,0,0,1,264.1,350c-1.42-.11-2.84-.26-4.26-.31-1.26-.05-1.55.19-1.94,1.41a5.06,5.06,0,0,1-1.07,2.24,2.48,2.48,0,0,0-.57,1.13,4.41,4.41,0,0,1-3.37,3.23,3.63,3.63,0,0,0-2.36,1.75,1.15,1.15,0,0,1-1.47.58,6.28,6.28,0,0,0-5.64,1.32,2.3,2.3,0,0,1-2.75.35,2.11,2.11,0,0,0-2.55.6c-.44.43-1.09,1-1.55.94-1.18-.2-2.31.2-3.44.06a4.21,4.21,0,0,0-3.86,1.28,2,2,0,0,1-1.68.7,4.12,4.12,0,0,0-4.11,2.14,2.57,2.57,0,0,1-2.66,1.36,2.74,2.74,0,0,0-2.32.81,4.71,4.71,0,0,1-.78.54c-3.25,1.95-2.94,3.4,0,5.23a1.61,1.61,0,0,0,.71.34c.28,0,.74,0,.83-.23a4.14,4.14,0,0,1,2.51-1.8,2.47,2.47,0,0,0,1.17-1c.59-1,1.43-1.07,2.45-.92a7.84,7.84,0,0,0,2.81.08c1.24-.29,2.14-.25,2.81,1,.28.51.87,1,1.45.67a4.57,4.57,0,0,0,1.33-1.43c.15-.22,0-.62.08-.93.1-.47.38-.75,1-.59a1.69,1.69,0,0,0,2,1.91,1.28,1.28,0,0,1-1,1.72,11.27,11.27,0,0,0-1.69.41,1.33,1.33,0,0,0-.59,1c0,.27.36.79.58.8a6.1,6.1,0,0,0,2.92-.24,18.51,18.51,0,0,0,4.13-3.13,4,4,0,0,1,3.53-1.32c.26,0,.53,0,.79,0a2.33,2.33,0,0,0,2-.74,14,14,0,0,1,2.22-1.77c1.15-.75,2.08-.26,2.21,1.1l.18,1.88-1.5,1.8c.52.45.9.79,1.27,1.13-.62,1.41-1.35,0-2.1.22-.09.14-.33.34-.35.56a1.9,1.9,0,0,1-1.13,1.6,2.63,2.63,0,0,0-.82.74,1.5,1.5,0,0,0,.39,2.21c2.32,1.48,4.22.86,5-1.75a1.55,1.55,0,0,1,1.72-1.25,3.42,3.42,0,0,0,1.4-.19,9.81,9.81,0,0,1,4.14-.78,5.58,5.58,0,0,1,1.09.29c-.25.41-.4.68-.57.94-.76,1.11-.55,1.81.7,2.29a3.84,3.84,0,0,0,.92.26,33,33,0,0,0,3.29.33,1.62,1.62,0,0,0,1.19-.53,2.91,2.91,0,0,0-.35-3.62c-.27-.29-.52-.62-.84-1a16,16,0,0,0,1.84-1.35,2.45,2.45,0,0,1,3.22-.3,1.62,1.62,0,0,1,0,2.67,8.43,8.43,0,0,0-1.18,1,1.35,1.35,0,0,0,.26,2.16c.44.38.87.78,1.31,1.15a1.45,1.45,0,0,0,2.12,0c.37-.31.66-.7,1-1s.71-.48.95-.39a3.19,3.19,0,0,0,3.13-.54.82.82,0,0,1,1.24.27,1.6,1.6,0,0,1,.18,1.29,2.7,2.7,0,0,1-1.35,1.26,9.83,9.83,0,0,0-3.58,1.54c-.39.3-1.05.27-1.42.58a6,6,0,0,1-2.23,1.45,1,1,0,0,0-.74,1.23,1.21,1.21,0,0,0,1.22,1.05,2.65,2.65,0,0,0,1.19-.32,2,2,0,0,1,2.24-.07,2.44,2.44,0,0,0,2.62.46,11.61,11.61,0,0,1,1.87-.33c.85-.11,1.37.18,1.3.94a47.68,47.68,0,0,1-.78,5.3,1.63,1.63,0,0,1-1.89,1.33,3.47,3.47,0,0,0-2.25.63c-.85.55-1.67,0-1.66-1,0-.25.16-.51.16-.77,0-.72-.48-1.37-1.07-1.33s-1.36.6-1.73-.11c-.24-.46,0-1.19.07-1.8.06-1.17-.23-1.52-1.42-1.62a15.06,15.06,0,0,0-1.9,0c-.95.05-1.22.38-1.16,1.3.14,2,.49,3.84,2.57,4.78l.13.08a1,1,0,0,1,.19,1.52,3.2,3.2,0,0,0-.74,2.17,2.14,2.14,0,0,1-.8,1.43,2.83,2.83,0,0,1-2,.35,15.44,15.44,0,0,1-2.9-1.39c-.15-.08-.2-.36-.29-.55a4.27,4.27,0,0,0-4.72-2.55,2.22,2.22,0,0,1-2.8-1c-1-1.57-2.13-1.76-3.82-.91-.56.29-1.09.65-1.63,1a4.62,4.62,0,0,1-6.35-.82,2.23,2.23,0,0,0-.61-.49c-1.54-.76-3.09-1.52-4.64-2.25-.11-.05-.29.07-.56.14.22,1.35-.56,2.64-.07,4a1,1,0,0,1-.87,1.3c-1.45.32-2.32,1.4-3.32,2.34a1.94,1.94,0,0,0-.67,2.39c.27.62,0,1-.65,1.19-.41.12-.81.23-1.21.39s-1,.39-1.26-.15a1.65,1.65,0,0,1,.07-1.32,8.27,8.27,0,0,1,1.22-1.38.9.9,0,0,0-.06-.31,2.35,2.35,0,0,0-3.57-.36c-.92.76-1.42.68-2-.34a3.76,3.76,0,0,1-.25-.58c-.49-1.4-1.16-1.8-2.57-1.55a3,3,0,0,1-1.24.14,2.12,2.12,0,0,1-1.23-.8c-.32-.56.18-1.05.67-1.24a15,15,0,0,1,2.56-.72,12.11,12.11,0,0,1,1.71-.1c-.08-.55-.1-.95-.2-1.34a1.1,1.1,0,0,1,.64-1.31,1.08,1.08,0,0,1,1.42.33c.21.23.33.54.53.78.92,1,1.82,2.11,3.43,1.95.7-.07,1,.34,1.25,1,.42,1,.83,1,1.74.49,1.16-.7,1.29-1.06.74-2-.46-.77-1-1.51-1.37-2.31a2.73,2.73,0,0,0-2.81-1.68c-1.36.08-2.73.2-4.1.25a1.51,1.51,0,0,1-1-.23,4.22,4.22,0,0,0-3.59-1.3c-.73,0-1.18-.33-1.33-1.28l1.68-.25c.78-.12,1.57-.2,2.34-.37.56-.12.68-.6.68-1.11s0-1.08-.59-1.35a6.6,6.6,0,0,0-6.15.45c-.81.45-1.44.63-2.13,0a1.45,1.45,0,0,0-1.44-.35,24,24,0,0,1-2.69.17c-.4,0-.81.07-1.2.1-.06,1.34,0,1.52,1,1.54.47,0,.94-.14,1.41-.16a10.7,10.7,0,0,1,1.7.08c.54.07,1.07.26,1.07.95a1.15,1.15,0,0,1-1,1.24,1.7,1.7,0,0,0-1.57,1.5c-.09.41-.66.71-1,1.06a7.08,7.08,0,0,1-.8-.85c-.49-.76-.83-.87-1.69-.44q-.84.42-1.71.81c-1.4.61-1.73,1.23-1.55,2.38-1.08,1.22-2,2.26-2.91,3.28-.4.44-.86.81-1.52.35-.19-.68-.31-1.38.33-1.88a27.32,27.32,0,0,1,2.45-1.69c.56-.37,1-.69.82-1.51-.29-1.28.07-1.78,1.33-2.2,1.59-.52,1.68-.59,1.63-2.19-.06-1.95-.34-3.9-.29-5.85a4.51,4.51,0,0,0-1.69-3.73c-.91-.8-1.8-1.09-2.72-.41a6,6,0,0,1-4.05,1c-1.17,0-1.17.08-1.47,1.18-.48,1.72-1.2,3.24-3.1,3.87a3,3,0,0,0-1.48,1.08,6.61,6.61,0,0,1-3.5,2.58,5.24,5.24,0,0,0-2.08,1.38,8.56,8.56,0,0,0-2.26,6.09,4,4,0,0,1-1.3,3.11c-.75.76-1.48,1.52-2.26,2.24a1.43,1.43,0,0,0-.47,1.72,3.23,3.23,0,0,1,0,3.45c-.08.12,0,.31-.07.47-.3,1.94,0,4-1.16,5.79a1,1,0,0,0-.09.62c.05,1,.1,2.1.19,3.15a5.14,5.14,0,0,1-.25,3.1,1.69,1.69,0,0,0,0,1.81,2.38,2.38,0,0,1,.18,2.66,1.77,1.77,0,0,0,.46,2.3c.46.41.86.9,1.33,1.41-.41.45-.7.81-1,1.15-1.28,1.34-1.28,1.52,0,2.83A22.27,22.27,0,0,1,184,432c1.07,1.32.7,2.42-.91,2.94a11.1,11.1,0,0,0-1.33.68,9,9,0,0,1,.92,4.45c-.09.64-1.06,1.16-.38,1.85a10.85,10.85,0,0,0,1.78,1.24l.53.35c1.29.83,1.29.83,2.56-.19a1.43,1.43,0,0,1,.37-.29,1.31,1.31,0,0,1,1.61.2c.42.48.06.89-.26,1.25s-.56.62-.84.93-.53.46-.55.71c-.12,1.19-1,1.47-1.9,1.88a6.45,6.45,0,0,0-1.69,1.32,1.66,1.66,0,0,0-.44,2c.37.74,1.09.7,1.79.73,1.21,0,2.42.19,3.63.2a1.92,1.92,0,0,0,1-.45c.25-.17.36-.52.58-.74a1.53,1.53,0,0,1,2.25-.2c.5.49.4,1.1-.47,1.88s-1.89,1.38-2.67,2.23c-1.11,1.22-2.06,2.6-3.07,3.92,0,0,.05.19.11.36a4.15,4.15,0,0,0,.88.12,1.42,1.42,0,0,1,1.48,1,5,5,0,0,1,.31,1.53c.06.74,0,1.49.06,2.22.05.34.4.84.68.88s.63-.38.93-.63a.94.94,0,0,0,.19-.43c.28-1.12,1.14-1.7,2.14-2.41a8.14,8.14,0,0,0,.92,1.54c.39.4,1,.58,1.41,1a1.25,1.25,0,0,1,.32,1,2.77,2.77,0,0,1-3.55,1.71c-1.7-.77-2.89-.1-3.24,1.89a10.16,10.16,0,0,1,2,1.11c.92.79,1.69,1.76,3,1.84a.53.53,0,0,1,.38.27c.65,1.25,1.79,1.46,3,1.63a1.3,1.3,0,0,1,1.21,1.58,21.29,21.29,0,0,1-.49,3.1,12.85,12.85,0,0,0-.79,4.17c.09,2.52-1.56,4.16-3.25,5.7a21.84,21.84,0,0,1-2.26,1.46,4.45,4.45,0,0,1-4.32.82,2.23,2.23,0,0,0-.78-.06c-2-.06-2.67,1.1-1.76,2.88a3.94,3.94,0,0,1,.58,1.11c.36,2.55.7,5.11,1,7.68a6.36,6.36,0,0,1-.35,1.83,17,17,0,0,0-.8,3.84c0,1.16.43,2.27-.61,3.21a.81.81,0,0,0-.1.61,2.36,2.36,0,0,1-1.87,2.86,11.18,11.18,0,0,0-1.09.65,1.31,1.31,0,0,0-.87,1.51,4.2,4.2,0,0,1-1,3.22c-.53.72-.94,1.55-1.52,2.22-1.08,1.26-.46,2.35,1.08,2.8.49.15,1,.32,1.58.52-.25.38-.35.76-.57.84a6.77,6.77,0,0,1-1.81.45c-.78.06-1.48.33-1.46,1.13a2.35,2.35,0,0,1-1.26,2.17c-.48.32-.81.84-1.26,1.21a2.07,2.07,0,0,0-.64,2.3,8,8,0,0,1,.37,1.21,2,2,0,0,1-.26,1.13c-.17.3-.56.47-.84.71-1.27,1.09-2.68,2.07-2.91,4a1.88,1.88,0,0,1-.8,1.12,10.06,10.06,0,0,0-3.13,3.48c-.57,1-.65,1.7,0,2.25s1.17.4,2.06-.43c1.46-1.38,2.93-2.74,4.41-4.1.55-.5,1.19-.9,1.68-1.43,1.94-2.09,3.84-4.22,5.75-6.34a11.68,11.68,0,0,0,.91-1.09c.58-.82,1-1.91,1.74-2.42,1.36-.88,1.71-2.17,2.12-3.54.52-1.76,1.07-3.51,1.42-5.34s.58-3.56,1.76-5a2,2,0,0,0,.26-.74c.31-1.12.68-2.23.9-3.37.15-.75.45-1.13,1.23-1.13s1.06-.53,1.05-1.26a24.31,24.31,0,0,1,0-2.7c0-.36.32-1,.55-1a3.87,3.87,0,0,0,2.3-1.57c.49-.5,1.13-.72,1.45-.07a6.44,6.44,0,0,1,1,3.53,1.44,1.44,0,0,1-.77.88,3,3,0,0,0-1.73,3.1,12.75,12.75,0,0,1-.28,3.14c-.39,1.8-1,3.55-1.38,5.36a22.28,22.28,0,0,0-.09,3.28,9.37,9.37,0,0,1-.2,2c-.25,1.06-.64,2.1-.91,3.16a46.13,46.13,0,0,1-1.11,4.57c-.63,1.67-1.56,3.23-1.44,5.11a2.79,2.79,0,0,1-.21.92,18.16,18.16,0,0,0-.77,5c0,2-.44,4-.51,6a38.43,38.43,0,0,0,.14,7.59,53.27,53.27,0,0,1,.77,7.22,5.55,5.55,0,0,1-3,5.16,5.45,5.45,0,0,0-1.54,1.08c-1,1.31-1.74,2.74-2.64,4.09a5.39,5.39,0,0,1-1.28,1.33,1.48,1.48,0,0,1-1.79,0c-.62-.44-.61-1-.41-1.69.31-1.12.07-1.73-.63-2.05a1.92,1.92,0,0,0-2.22.73c-.35.39-.67.93-1.12,1.1-1.2.46-1.87,1.52-2.83,2.23s-2.11,1.88-3.6,1.82a2.83,2.83,0,0,0-2.48,1.11,6.83,6.83,0,0,1-1,1c-1.39,1.09-1.43,1.17-.93,2.94a5.43,5.43,0,0,0,4.71-1.15,14.83,14.83,0,0,1,4.13-2.89,1.56,1.56,0,0,0,.72-1.07c.12-.69.31-1.21,1-1.4,1.13,1,1.12,1,.29,2a2.45,2.45,0,0,0-.63,1.05,2.39,2.39,0,0,1-1.48,1.73c-.62.31-1.28.52-1.9.82-.95.47-1.05.71-.86,2,.54-.18,1.07-.33,1.58-.52.33-.13.66-.45,1-.43a1.93,1.93,0,0,1,1.2.49c.11.12-.17.77-.41,1-.58.68-1.26,1.26-1.87,1.91a7.17,7.17,0,0,1-2.32,2.09c-.36.14-.59.59-.89.88a5.69,5.69,0,0,1-1,.94,2.06,2.06,0,0,0-1.09,1.27c-.15.53-.35,1.15-1.34,1.08-.31-.94-.64-1.94-1-3.07.34-.21.68-.45,1-.63s.67-.12.87-.32a6.18,6.18,0,0,1,2.7-1.58,1.42,1.42,0,0,0,.53-.34,1.13,1.13,0,0,0,.22-1.67c-.47-.45-1.13-.36-1.59.33a2.36,2.36,0,0,1-1.46,1.11c-1,.23-1.06.2-1.41-.69-.14-.35-.33-.67-.53-1.06a7.65,7.65,0,0,1-1.5,1,1.16,1.16,0,0,0-.86,1.33,4.67,4.67,0,0,1-.74,3.16,2.59,2.59,0,0,0-.19,1.07c-.12.83-.25,1.67-.34,2.5-.22,1.83-.42,3.66-.63,5.49a1.28,1.28,0,0,0,.63,1.34,9.48,9.48,0,0,1,.94.86c.8.7,1.33.59,1.88-.33a9.3,9.3,0,0,1,1.26-1.77c.74-.75,1.63-1.35,2.38-2.09,2-1.92,3.95-3.81,5.8-5.83a36.14,36.14,0,0,0,3.8-4.84,12.73,12.73,0,0,1,2.77-3.23c2.15-1.7,3.56-4,5.27-6a3.57,3.57,0,0,0,.34-.71c.28-.55.56-1.1.83-1.65a4.87,4.87,0,0,0,.52-1.11,5,5,0,0,1,2.2-3.36,1.92,1.92,0,0,0,.71-.81,47.76,47.76,0,0,0,1.79-4.7c.61-2.08,1-4.23,2.41-6a1.19,1.19,0,0,0,.2-.59c.35-2.66,1.36-5.21,1.28-8,0-1.2.36-1.45,1.44-1a1.46,1.46,0,0,0,1.62-.11,7.11,7.11,0,0,0,2-2.76,8.19,8.19,0,0,0-1.28-.3c-.64,0-1.28,0-1.91,0-1.1,0-1.3-.29-1.07-1.36a30.23,30.23,0,0,0,1.06-8.93,2.25,2.25,0,0,1,.75-2,3.21,3.21,0,0,0,1.18-3.09,12.05,12.05,0,0,1,0-1.59c0-1.41.58-1.79,1.92-1.24a1.92,1.92,0,0,0,2,.08,12.69,12.69,0,0,0,1.85-1.19.72.72,0,0,0-.45-1.28,9.06,9.06,0,0,0-1.25.11,12.2,12.2,0,0,1-2.18-.07,1,1,0,0,1-.9-1.13c.27-1.53.22-3.19,1.45-4.39a2.43,2.43,0,0,0,.8-1.65c.19-2.53.5-5,2-7.21.41-.6.79-1.22,1.19-1.82.62-.92,1.32-1.79,1.87-2.74a1.38,1.38,0,0,0-1.17-2.16c-.6-.06-1.39.23-1.62-.6s.56-1,1-1.41.56-1,0-1.44a1.49,1.49,0,0,0-1.9,0c-.29.22-.52.53-.8.77-.82.71-1.86.48-1.85-.53a8.9,8.9,0,0,0-1-3.12,6.42,6.42,0,0,1-.11-1.82c0-.4,0-.8,0-1.21a1.16,1.16,0,0,0-1.5,1,10,10,0,0,0-.07,1.1c-.2,1.47-.91,2-2.36,1.69a2.43,2.43,0,0,0-2.33.65c-.42.38-.83.78-1.22,1.15-1.2-.9-1.44-1.92-.59-3a7.09,7.09,0,0,0,.88-2.28,21.88,21.88,0,0,1,2.13-3.83c.13-.22.56-.25.86-.36s.61-.15.9-.27c1.63-.63,2.07-.41,2.35,1.29a2.24,2.24,0,0,0,.9,1.73c1.3-.84,1.37-1.28.5-3.24.38-.79.76-1.62,1.25-2.66.66.6,1.15,1,1.57,1.44a2,2,0,0,0,1.81.55,43.76,43.76,0,0,1,5.35.32,1.32,1.32,0,0,1,.69.36,3.58,3.58,0,0,0,2.67.78c3.86-.12,3.38-.06,5.45,2.73a5.24,5.24,0,0,0,4.06,2.43,5,5,0,0,1,2.65,1.24,3.08,3.08,0,0,0,2.4.93,4.54,4.54,0,0,1,1.1.09c2.81.48,5.6,1.12,8.48.85a1.86,1.86,0,0,1,1.86.91c1.25,1.77,3,1.91,4.53.42a4,4,0,0,1,3.38-1.37c.63.07,1.28,0,1.91,0a7.45,7.45,0,0,0,6.46-3.27c.37-.49.74-.95,1.4-.84a2.55,2.55,0,0,0,2.43-1.19,3.83,3.83,0,0,1,2.53-1.52,2.74,2.74,0,0,0,2.26-1.74,12.39,12.39,0,0,0,1.38-3.16,1.69,1.69,0,0,1,1.7-1.54c2.15-.26,4-1.37,5.94-2.14,1.23-.49,2.28-1.2,3.29.25.1.14.41.13.56.25a7,7,0,0,1,1,.93c.68.8,1.26,1.69,2,2.44a3.17,3.17,0,0,0,4.51.1,8,8,0,0,1,4.74-2.32,29.67,29.67,0,0,1,4.1-.17,10.83,10.83,0,0,0,4.74-1.11,15.14,15.14,0,0,0,2.58-1.42c.75-.47,1.45-1,2.2-1.52,1.26-.83,2.48-1.87,4.17-1.13a1.44,1.44,0,0,1,2.11.7c.09.16.51.14.89.23a6,6,0,0,0,0-1.06c-.31-1.53-.26-1.57,1.27-1.76.48-.06,1.17-.21,1.37-.56a2.13,2.13,0,0,1,2.12-1c1,0,1.34-.69.67-1.44a2,2,0,0,1-.3-2.34c.27-.63.59-1.24.81-1.89a17.29,17.29,0,0,0,.8-2.72c.17-1-.17-1.42-1.14-1.78a1.76,1.76,0,0,1-1.34-2,1.82,1.82,0,0,1,1.78-1.49c1.22,0,2.44,0,3.66,0a4.18,4.18,0,0,1,3.7,1.39,1.46,1.46,0,0,0,1.72.45c.44-.14.92-.51,1.27-.41s.62.66.92,1,.45.58.67.88a2.06,2.06,0,0,0,3.37.38,4.41,4.41,0,0,0,1.63-2.47,2,2,0,0,1,2.3-1.9,2.23,2.23,0,0,0,1.47-.74q3.52-3.74,6.94-7.6a2.48,2.48,0,0,0,.4-1.6c-.09-1.45-.13-1.48,1.18-1.22a1.29,1.29,0,0,0,1.59-.7c1-2.24,3.23-3.29,4.7-5.08a34.49,34.49,0,0,1,4.7-4.23c2.36-2,4.71-3.91,7.16-5.74,1.9-1.42,3.92-2.68,5.92-4,1.56-1,3.17-1.87,4.77-2.77,3.27-1.84,6.53-3.66,9.81-5.48.88-.48,1.8-.88,2.68-1.35,1.08-.56,2.11-1.21,3.22-1.71q3-1.38,6.12-2.61c1.27-.5,2.58-.91,3.88-1.32,2.31-.73,4.6-1.56,7-2.12,3.28-.77,6.6-1.31,9.9-2a2.49,2.49,0,0,0,1.14-.43c1.08-1,2.44-.4,3.62-.75.12,0,.36.34.54.52.46,0,.92,0,1.37,0,.67-.07,1.34-.13,2-.26a17.92,17.92,0,0,1,2.74-.6c2.86-.08,5.72,0,8.59,0,1.31,0,2.64-.2,3.79.74.29.23.81.17,1.23.23a11.08,11.08,0,0,1,1.41.17c2.63.69,5.44.63,7.95,1.89a3,3,0,0,0,.61.13c1,.26,2.06.47,3.06.79,2.25.71,4.52,1.39,6.72,2.26s4.22,1.88,6.32,2.85c1.28.6,2.53,1.28,3.83,1.86.91.41,1.77.08,1.85-.79.18-1.82.72-3.63.24-5.5a12.43,12.43,0,0,1-.14-4.71c.14-1.14.25-2.3.3-3.46s0-2.14,1-3c.78-.74.42-1.7-.65-2a2.72,2.72,0,0,1-1.75-1.7c-.36-.76-.69-1.53-1.08-2.28-.49-.94-.43-1.53.28-1.88,1-.47,2.3-.21,2.45.65a4.66,4.66,0,0,0,1.28,2.13c.94,1.17,1.67,1.1,2.34-.19a16.49,16.49,0,0,1,1.53-2.77c1.68-2.09,2.43-4.68,3.79-6.94,1.28-2.1,2.24-4.41,3.59-6.46,1.2-1.85,2.77-3.46,4.14-5.19,1-1.23,1.9-2.49,2.88-3.78-1-.84-2-.46-3-.44a24,24,0,0,1-2.67.15,1.76,1.76,0,0,1-1.25-.76c-.66-1.13-1.13-2.37-1.74-3.54s-1.44-2.34-3.16-2a2.59,2.59,0,0,1-1.41-.08,1.34,1.34,0,0,1-.75-.83c-.23-1,.15-1.55,1.13-1.93a4.62,4.62,0,0,0,1.2-.69c1.07-.84,1.76-.94,2.58.12,1.06,1.38,2.66,1.64,4.07,2.28a2.76,2.76,0,0,0,2,0c.72-.3.15-1,.17-1.56a1.26,1.26,0,0,1,.4-.93,1,1,0,0,1,1,.16,3.72,3.72,0,0,0,2.82,1.22,1.5,1.5,0,0,1,1.42,1.26,5.63,5.63,0,0,0,.23.92,1.11,1.11,0,0,0,1.71.52,30,30,0,0,0,3.26-3.21c.92-1.11.67-1.85-.59-2.56a3.22,3.22,0,0,0-1-.36c-1.88-.32-2-.44-2.21-2.37a2.69,2.69,0,0,0-2.79-2.75,2.47,2.47,0,0,1-2.33-1.84,6.31,6.31,0,0,0-2.1-3.28,8.15,8.15,0,0,1-1.32-1.37c-.22-.31-.45-.91-.3-1.12a2.61,2.61,0,0,0,.29-2.05c.22-.09.39-.22.51-.19,1.3.37,2.59.75,3.87,1.18.2.07.36.4.43.64a5.19,5.19,0,0,1,.21,1.24c0,.52.18,1,.76,1a2.1,2.1,0,0,1,1.61,1.12c.44.66.9.64,1.62.16a6.25,6.25,0,0,1,1.33-.83,1.6,1.6,0,0,1,2.34,1.64c0,.53,0,1.06,0,1.59,0,.88.59,1.2,1.27,1.39a1.06,1.06,0,0,0,1.44-.61,1.74,1.74,0,0,1,.34-.44c1.21.18,2.23.4,3.26.46.83,0,1.32.27,1.31,1.18a4.35,4.35,0,0,0,.21.81,4.68,4.68,0,0,0,1.27-.48A43.28,43.28,0,0,1,517,355c.69-.37,1.25-1,1.92-1.38.89-.55,1.83-1,2.76-1.51,1.29-.67,2.6-1.29,3.87-2a36.11,36.11,0,0,1,3.75-1.6,37.82,37.82,0,0,1,6.89-2.27c3.39-.73,6.71-1.9,10.23-2a4.31,4.31,0,0,0,.76-.21,11.43,11.43,0,0,1,1.81-.38c2-.16,4-.23,6-.39s4-.51,6-.57c3-.09,6,0,9.06,0a8.37,8.37,0,0,1,1.55.26c.61.12,1.22.3,1.84.36,2.15.22,4.31.33,6.46.61,1.87.24,3.73.57,5.59.88,3.49.58,6.9,1.42,10.32,2.29,2.65.67,5.31,1.4,7.88,2.33a7.63,7.63,0,0,0,5,0c1.58-.46,1.87-1.27,1-2.64Zm-431.19,234c-.61,1.23-.73,1.34-2.58,2.25.39-2.76,1-3.25,2.58-2.25Zm14.75-42.79c-.24,1.66-.49,3.32-.74,5-.05.31-.17.62-.19.93-.12,2.31-.26,4.63-.31,6.95a2.11,2.11,0,0,1-1.38,2.05c-.86-1-.49-2-.41-3,.14-1.56.33-3.13.52-4.69q.39-3.13.8-6.25a6.6,6.6,0,0,1,.25-1.55c.1-.28.49-.64.73-.63s.5.42.7.69a.74.74,0,0,1,0,.47Zm.15-106.08a17.88,17.88,0,0,1-1.41,1.81,1.07,1.07,0,0,1-1,0A2.1,2.1,0,0,1,191,430a1.41,1.41,0,0,1,1.17,0,2,2,0,0,1,1.11,1.79Zm11.92,56.1a3.52,3.52,0,0,1-1.68,2.72,1.15,1.15,0,0,1-1.6-.54c-.28-.55,0-.86.45-1.15a6.2,6.2,0,0,0,1-.79,1.42,1.42,0,0,1,1.86-.24Zm5.36-90.35a1.38,1.38,0,0,1-1.32,1,5.35,5.35,0,0,0-3.61,1.3.9.9,0,0,1-1.4,0c-.46-.56,0-1,.4-1.32a.35.35,0,0,1,.13-.08,11.65,11.65,0,0,0,3.08-1.62c1-.73,1.94,0,2.72.75Zm20.58,91.64c.78.13,1.33.42,1.43,1.22s.55,1,1.29,1.07a14.14,14.14,0,0,1,2.5.32,1.89,1.89,0,0,1,1.15.69,2,2,0,0,0,2.18,1.21,1.36,1.36,0,0,1,1.43.89c-.11.15-.13.2-.17.24-1.37,1.18-1.3,1.83.28,2.63.14.07.33.07.44.17.54.41,1.25.81,1,1.62s-.93.72-1.57.76c-2.06.1-4.11.32-6.17.31-2.37,0-4.75-.15-7.11-.36a5.84,5.84,0,0,1-2-.8c-.89-.45-1.73-1-2.62-1.45-1.54-.81-3-1.56-3.88-3.3a5.8,5.8,0,0,0-2.62-1.93c-1.58-.81-1.81-1.16-1.22-2.79a1.84,1.84,0,0,0-.82-2.58c-.21-.15-.47-.24-.69-.39-.62-.44-.63-.95,0-1.36a1.92,1.92,0,0,1,.85-.41,4.56,4.56,0,0,0,3-1.28,1.15,1.15,0,0,1,1.6.17,2.32,2.32,0,0,0,2,.63c.74,0,1.48,0,2.22,0,1.1,0,1.34.26,1.64,1.33a7,7,0,0,0,.36,1.38c.2.39.53.89.9,1a45.56,45.56,0,0,0,4.6,1ZM244,399.64c-.23.42-.29.64-.43.75a3.16,3.16,0,0,0-1.36,1.81c-.29,1.15-2,1.58-3.09,1a8.32,8.32,0,0,0-1.32-.49c-.83-.29-1-.71-.48-1.4,1.29-1.75,1.29-1.75,3.54-1.73l3.14.05Zm12.54,4.5c-.22.6-.76.58-1.27.38a1.63,1.63,0,0,0-1.58.34,25.84,25.84,0,0,1-3.26,1.59.89.89,0,0,1-.81-.26c-.14-.19,0-.57,0-.87,0,0,.05-.09.09-.12,1.6-1.17,3.19-2.36,4.8-3.5a2.49,2.49,0,0,1,.91-.2l1.14,2.64Zm-1.71,90a4,4,0,0,1-3.77.19,7.46,7.46,0,0,0-2.28-.55,2.48,2.48,0,0,1-1.62-.87c-1.27-1.38-2.14-1.48-3.67-.48a1.77,1.77,0,0,1-2.71-.85,6.75,6.75,0,0,1-.25-.76,3.34,3.34,0,0,0-4-2.61,2,2,0,0,1-2.13-.71c-1.31-1.77-3.27-1.64-5.2-2.06-.05.3-.11.41-.08.5.11.45.15.95-.42,1-.22,0-.5-.54-.64-.88a7.58,7.58,0,0,1-.42-1.48c-.07-.39-.22-1,0-1.15a2.11,2.11,0,0,1,1.25-.33,5.38,5.38,0,0,1,1.15.19c.11-.36.2-.64.28-.93.25-1,.87-1.34,1.57-.72,1,.93,1.84.67,2.81,0a7.68,7.68,0,0,1,2.11-1,1.93,1.93,0,0,1,1.48.12,4.37,4.37,0,0,0,2.71.68,9.34,9.34,0,0,1,4.29.91c.37.18.85.38,1,.7.52,1,1.23.89,2.12.57,1.34-.47,1.4-.46,2.11.8a1.47,1.47,0,0,0,1.54.84c.73,0,1.37.35,1.36,1,0,1.36.95,1.67,1.88,2,1.35.5,1.36.47,1.39,1.82a5.34,5.34,0,0,0,0,.8c.28,1.61-.56,2.55-1.87,3.29ZM274,405.87a8,8,0,0,1-1.87-.41,6.74,6.74,0,0,0-.18.83.86.86,0,0,1-.92.88,22.06,22.06,0,0,1-3.15-.08,1.58,1.58,0,0,1-1.15-.86c-.08-.32.43-.84.77-1.19s1-.78,1.44-1.17a2.93,2.93,0,0,1,.48-.39c.94-.45,1.88-.88,2.83-1.31.23-.11.48-.19.77-.3.58.91.87,1.92,1.85,2.51.61.37,0,1.46-.87,1.49Zm-18.23-34.11a3.31,3.31,0,0,0-.33,1.34c0,.5,0,1,0,1.51l-.41.16a2.69,2.69,0,0,1-.72-.49,10,10,0,0,1-.53-1c-.95-1.46-1-1.47.05-2.73a1,1,0,0,0-.07-1.51c-.15-.15-.37-.28-.42-.46a7.06,7.06,0,0,1-.18-1.12,4.38,4.38,0,0,1,1.29-.1c.24.05.46.41.6.69.29.56.5,1.16.77,1.73a1.94,1.94,0,0,1,0,1.95ZM291,376.4a3.43,3.43,0,0,1-1.27,1.44c-.57.3-1.06-.18-1.43-1a10,10,0,0,1,1.29-1.53,1.14,1.14,0,0,1,1.12,0,1.11,1.11,0,0,1,.29,1.07Zm3.28,9.23a1.28,1.28,0,0,1,1.25,1.18,1.43,1.43,0,0,1-1.54,1.27,1.3,1.3,0,0,1-1.21-1c0-.53.91-1.4,1.5-1.41Zm2.85-5.5a2.4,2.4,0,0,1-2.61,1.25.88.88,0,0,1-.71-1.29,1.84,1.84,0,0,1,2.74-.64,6.62,6.62,0,0,1,.58.68Zm11.53,90.22A3.52,3.52,0,0,1,310.8,468a.8.8,0,0,1,.9.85,3.35,3.35,0,0,1-2.36,2.48c-.59,0-.77-.47-.73-1ZM312,315.66a2.44,2.44,0,0,1-2.27,1.84c-.47,0-.95,0-1.43,0a1.57,1.57,0,0,1-1.7-1.14c-.12-.48.35-1.12.64-1.65.14-.26.45-.42.84-.76-1.56-1.22-1.34-2.92-1.65-4.44a.91.91,0,0,1,.08-.61,1,1,0,0,1,.56-.47c.19,0,.58.2.6.36.18,1.48,1.76,2.39,1.6,4,0,.29.42.67.7.95a3.48,3.48,0,0,0,.69.37c.62.36,1.5.55,1.34,1.52Zm118.94-60.08a1.15,1.15,0,0,1-1.25,1.12c-.87,0-1.87.42-2.71-.53a2.9,2.9,0,0,1,2.55-1.57,1.34,1.34,0,0,1,1.41,1Zm8.84,1.45a1.38,1.38,0,0,1-1.88,0c-.77-.65-1.56-1.31-1.4-2.5a2.67,2.67,0,0,0-.11-.78c-.18-1,.27-1.61,1.53-1.67a3.42,3.42,0,0,1,.92.66,15.85,15.85,0,0,1,1.52,2.22,1.52,1.52,0,0,1-.58,2.07Zm6.32-5.45c0,.15-.41.34-.64.36a10.13,10.13,0,0,1-2.06,0,1.05,1.05,0,0,1-.75-.63,1.17,1.17,0,0,1,.47-.89,4.61,4.61,0,0,1,1.16-.46c.15-.75.27-1.34.39-2a1.53,1.53,0,0,1,1.5,1.4,8,8,0,0,1-.07,2.18Zm6.16,8.64c-1.33.61-2.39.4-3.71-.92a17.13,17.13,0,0,1,1.28-1.28,1.86,1.86,0,0,1,3,.94.93.93,0,0,1-.61,1.26Zm30.65,90.32a1.35,1.35,0,0,1-1.21-1.36,7.16,7.16,0,0,1,.2-2c0-.14.52-.35.64-.27a2.12,2.12,0,0,1,.84.84,3.88,3.88,0,0,1-.47,2.79Zm4.33-1c-.71,1-1.29,1.29-1.74.81a1.2,1.2,0,0,1-.23-1c.17-.54.9-.49,2,.16ZM216,379.79a4.89,4.89,0,0,0-3.44-3.09,1,1,0,0,0-.6.14c-1.26,1-2.17,3.09-.57,4.3a8.38,8.38,0,0,0,1.77.95,2,2,0,0,0,2.86-1.87,3.32,3.32,0,0,0,0-.43ZM162.85,549.73a1,1,0,0,0,0-1.56c-.48-.46-.93-.33-1.45-.1-.81.36-1.66.64-2.48,1a3.52,3.52,0,0,0-1.09.56,30.37,30.37,0,0,1-5.6,3.57,5.16,5.16,0,0,1-5.33-.29c-.84-.49-1.28-.32-1.42.63a5.9,5.9,0,0,0,0,.94,6.82,6.82,0,0,1,1.39.66c.74.57.61,1.35-.24,1.74a2,2,0,0,1-.93.14,2.06,2.06,0,0,0-1.8.8,5.11,5.11,0,0,1-1,.8c-1.24.78-2.52,1.51-3.74,2.32s-1.43.76-2.38-.2a2.61,2.61,0,0,0-1.17-.76,14.73,14.73,0,0,0-2.81-.38,1.62,1.62,0,0,0-1.2.51c-.34.48,0,.93.41,1.36a2.88,2.88,0,0,1,1,1.51,2.22,2.22,0,0,0,1.29,1.84,10.29,10.29,0,0,1,1.18.81,2.61,2.61,0,0,0,3.46,0,7,7,0,0,1,1.1-.88c2.42-1.17,5-2,7.13-3.73.16-.12.42-.11.59-.22,2.07-1.26,4.2-2.44,6.18-3.83,2.32-1.63,4.52-3.43,6.74-5.18a19.19,19.19,0,0,0,2.22-2Zm-17.41,4.73h0v0Zm0,0a15.77,15.77,0,0,1-1.84-.37,3.1,3.1,0,0,0-2.53.27,10.37,10.37,0,0,1-4.07,1.12,32.86,32.86,0,0,0-4.81.72,21,21,0,0,0-2.54.84c-1.44.51-2.87,1-3.53,2.6,1.13.74,1.88.78,2.87-.11a3.89,3.89,0,0,1,2.91-1c.53,0,1.06,0,1.59,0a2.2,2.2,0,0,0,1.89-.57c.47-.51,1-.38,1.62-.19a2,2,0,0,0,2.31-.54,3.36,3.36,0,0,1,1.05-.64,7.69,7.69,0,0,1,3.39-.62c1.25,0,1.43-.23,1.69-1.56Zm2.92-6.44a2.07,2.07,0,0,0,0-1.47,2.27,2.27,0,0,0-1-.93c-1.85-1-3.88-.74-5.86-.65-.38,0-.75.44-1.12.68,0,.18,0,.35,0,.53.49.2,1,.44,1.48.61s1,.11,1.34.36c1.21.89,2.69.82,4,1.18.34.1,1-.08,1.11-.31Z" transform="translate(-110.94 -146.7)"></path>
  <path d="M531.82,531.21a6.41,6.41,0,0,1-1.73-1.23c-13.77-19.56-30.58-36.39-47.63-53-11.33-11-25.16-17.49-40.67-20.44-16.28-3.11-31.64-.78-47,5.68a431.78,431.78,0,0,0-77.49,42.46c-1.27.87-2.53,1.77-4,2.84,0-.55-.11-.91,0-1.12,12.86-20.3,26.91-39.71,44.86-55.87,15.88-14.29,34.16-24.37,55.52-27.66,12.9-2,26-3.46,38.8.53,6.76,2.11,13.2,5.27,19.77,8,1.19.49,2.33,1.13,3.5,1.67,1.81.84,2.89.53,3.21-1.7.59-4.1,1.3-8.18,2.06-12.25a95.19,95.19,0,0,1,19.55-42.91c13.45-16.73,31.06-25.64,52-28.77,21.75-3.26,41.92,1.6,61,11.71a161.81,161.81,0,0,1,24.61,15.38c2.2,1.72,2.52,3.06,1.42,5.5-3,6.7-5.78,13.53-8.7,20.29-1.3,3-1.25,2.84-4,1-8.53-5.82-16.66-12.54-25.85-17-22.24-10.89-45-10.52-67.37.18-9.25,4.43-15.39,12-19.41,21.35a80,80,0,0,0-6.45,37.1c1.2,19.3,6.07,37.64,13.21,55.52,4,10.06,7.49,20.33,11.18,30.51a9.54,9.54,0,0,1,.27,1.79l-.7.5Z" transform="translate(-110.94 -146.7)"></path>
  <path d="M596.89,237.94c-.68,4-1.41,7.89-2,11.79-.87,5.7-.75,11.24,1.56,16.74,2.65,6.27,6.18,9,12.84,7.95a59,59,0,0,0,22.1-7.91c19.87-12.19,35.93-28.59,51.15-45.9,5.2-5.92,9.88-12.27,14.78-18.44a7.29,7.29,0,0,0,.72-1.42l1,.45c0,1.12.31,2.35,0,3.34-2.33,6.44-4.45,13-7.32,19.18a146.63,146.63,0,0,1-21.87,34.66c-11.38,13.18-23.2,26-39.36,33.38-12.36,5.64-25.38,8.94-39.19,6.38-14.53-2.69-28.35-14.73-26.38-34.21a84.61,84.61,0,0,1,1.26-10,6.22,6.22,0,0,1,2.76-3.89c8.74-4.2,17.6-8.13,26.44-12.11.3-.14.73,0,1.55,0Z" transform="translate(-110.94 -146.7)"></path>
  <path d="M669.67,346.65c-6.55,6.53-12.41,12.54-18.51,18.29a5.86,5.86,0,0,1-4.63,1,36.83,36.83,0,0,1-8.72-3.1c-15.4-8-25.45-20.41-29.92-37.23-1.06-4-1.8-8.08-2.75-12.1-.58-2.48,0-3.88,2.79-4.39,9.15-1.7,18.27-3.62,27.43-5.33,2.76-.52,3.94.57,3.89,3.79-.08,6.05,1.27,11.79,3,17.5,3,9.62,9.18,15.94,18.91,18.76,2.59.75,5.12,1.71,8.46,2.84Z" transform="translate(-110.94 -146.7)"></path>
</svg>
